<svg width="68" height="41" viewBox="0 0 68 41" fill="none" xmlns="http://www.w3.org/2000/svg">
<path d="M16.9176 23.6562H13.1847C13.1165 23.1733 12.9773 22.7443 12.767 22.3693C12.5568 21.9886 12.2869 21.6648 11.9574 21.3977C11.6278 21.1307 11.2472 20.9261 10.8153 20.7841C10.3892 20.642 9.92614 20.571 9.42614 20.571C8.52273 20.571 7.7358 20.7955 7.06534 21.2443C6.39489 21.6875 5.875 22.3352 5.50568 23.1875C5.13636 24.0341 4.9517 25.0625 4.9517 26.2727C4.9517 27.517 5.13636 28.5625 5.50568 29.4091C5.88068 30.2557 6.40341 30.8949 7.07386 31.3267C7.74432 31.7585 8.51989 31.9744 9.40057 31.9744C9.89489 31.9744 10.3523 31.9091 10.7727 31.7784C11.1989 31.6477 11.5767 31.4574 11.9062 31.2074C12.2358 30.9517 12.5085 30.642 12.7244 30.2784C12.946 29.9148 13.0994 29.5 13.1847 29.0341L16.9176 29.0511C16.821 29.8523 16.5795 30.625 16.1932 31.3693C15.8125 32.108 15.2983 32.7699 14.6506 33.3551C14.0085 33.9347 13.2415 34.3949 12.3494 34.7358C11.4631 35.071 10.4602 35.2386 9.34091 35.2386C7.78409 35.2386 6.39205 34.8864 5.16477 34.1818C3.94318 33.4773 2.97727 32.4574 2.26705 31.1222C1.5625 29.7869 1.21023 28.1705 1.21023 26.2727C1.21023 24.3693 1.56818 22.75 2.28409 21.4148C3 20.0795 3.97159 19.0625 5.19886 18.3636C6.42614 17.6591 7.80682 17.3068 9.34091 17.3068C10.3523 17.3068 11.2898 17.4489 12.1534 17.733C13.0227 18.017 13.7926 18.4318 14.4631 18.9773C15.1335 19.517 15.679 20.179 16.0994 20.9631C16.5256 21.7472 16.7983 22.6449 16.9176 23.6562ZM23.1264 17.5455V35H19.4957V17.5455H23.1264ZM26.0348 35V21.9091H29.6655V35H26.0348ZM27.8587 20.2216C27.3189 20.2216 26.8558 20.0426 26.4695 19.6847C26.0888 19.321 25.8984 18.8864 25.8984 18.3807C25.8984 17.8807 26.0888 17.4517 26.4695 17.0938C26.8558 16.7301 27.3189 16.5483 27.8587 16.5483C28.3984 16.5483 28.8587 16.7301 29.2393 17.0938C29.6257 17.4517 29.8189 17.8807 29.8189 18.3807C29.8189 18.8864 29.6257 19.321 29.2393 19.6847C28.8587 20.0426 28.3984 20.2216 27.8587 20.2216ZM32.5739 35V21.9091H36.0341V24.2188H36.1875C36.4602 23.4517 36.9148 22.8466 37.5511 22.4034C38.1875 21.9602 38.9489 21.7386 39.8352 21.7386C40.733 21.7386 41.4972 21.9631 42.1278 22.4119C42.7585 22.8551 43.179 23.4574 43.3892 24.2188H43.5256C43.7926 23.4688 44.2756 22.8693 44.9744 22.4205C45.679 21.9659 46.5114 21.7386 47.4716 21.7386C48.6932 21.7386 49.6847 22.1278 50.446 22.9062C51.2131 23.679 51.5966 24.7756 51.5966 26.196V35H47.9744V26.9119C47.9744 26.1847 47.7813 25.6392 47.3949 25.2756C47.0085 24.9119 46.5256 24.7301 45.946 24.7301C45.2869 24.7301 44.7727 24.9403 44.4034 25.3608C44.0341 25.7756 43.8494 26.3239 43.8494 27.0057V35H40.3295V26.8352C40.3295 26.1932 40.1449 25.6818 39.7756 25.3011C39.4119 24.9205 38.9318 24.7301 38.3352 24.7301C37.9318 24.7301 37.5682 24.8324 37.2443 25.0369C36.9261 25.2358 36.6733 25.517 36.4858 25.8807C36.2983 26.2386 36.2045 26.6591 36.2045 27.142V35H32.5739ZM60.3793 35.2557C59.0554 35.2557 57.9105 34.9744 56.9446 34.4119C55.9844 33.8437 55.2429 33.054 54.7202 32.0426C54.1974 31.0256 53.9361 29.8466 53.9361 28.5057C53.9361 27.1534 54.1974 25.9716 54.7202 24.9602C55.2429 23.9432 55.9844 23.1534 56.9446 22.5909C57.9105 22.0227 59.0554 21.7386 60.3793 21.7386C61.7031 21.7386 62.8452 22.0227 63.8054 22.5909C64.7713 23.1534 65.5156 23.9432 66.0384 24.9602C66.5611 25.9716 66.8224 27.1534 66.8224 28.5057C66.8224 29.8466 66.5611 31.0256 66.0384 32.0426C65.5156 33.054 64.7713 33.8437 63.8054 34.4119C62.8452 34.9744 61.7031 35.2557 60.3793 35.2557ZM60.3963 32.4432C60.9986 32.4432 61.5014 32.2727 61.9048 31.9318C62.3082 31.5852 62.6122 31.1136 62.8168 30.517C63.027 29.9205 63.1321 29.2415 63.1321 28.4801C63.1321 27.7188 63.027 27.0398 62.8168 26.4432C62.6122 25.8466 62.3082 25.375 61.9048 25.0284C61.5014 24.6818 60.9986 24.5085 60.3963 24.5085C59.7884 24.5085 59.277 24.6818 58.8622 25.0284C58.4531 25.375 58.1435 25.8466 57.9332 26.4432C57.7287 27.0398 57.6264 27.7188 57.6264 28.4801C57.6264 29.2415 57.7287 29.9205 57.9332 30.517C58.1435 31.1136 58.4531 31.5852 58.8622 31.9318C59.277 32.2727 59.7884 32.4432 60.3963 32.4432Z" fill="#202020"/>
<path d="M51.5731 18.6211C51.7856 9.90734 44.1253 2.65237 34.4632 2.41665C26.3601 2.21896 19.4226 7.02082 17.2693 13.7153M17.2693 13.7153C17.3036 12.3092 16.855 15.0033 17.2693 13.7153Z" stroke="#FCD307" stroke-width="3" stroke-linecap="round"/>
</svg>
